<svg preserveAspectRatio="none" overflow="visible" style="display: block;" width="20" height="20" viewBox="0 0 20 20" fill="none" xmlns="http://www.w3.org/2000/svg">
<g id="icon/lock">
<path id="Vector" d="M14.1667 9.16667H5.83333C4.91286 9.16667 4.16667 9.91286 4.16667 10.8333V15.8333C4.16667 16.7538 4.91286 17.5 5.83333 17.5H14.1667C15.0871 17.5 15.8333 16.7538 15.8333 15.8333V10.8333C15.8333 9.91286 15.0871 9.16667 14.1667 9.16667Z" stroke="#B7791F" stroke-width="1.45833" stroke-linecap="round" stroke-linejoin="round"/>
<path id="Vector_2" d="M6.66667 9.16667V6.66667C6.66667 5.78261 7.01786 4.93477 7.64298 4.30964C8.2681 3.68452 9.11595 3.33333 10 3.33333C10.8841 3.33333 11.7319 3.68452 12.357 4.30964C12.9821 4.93477 13.3333 5.78261 13.3333 6.66667V9.16667" stroke="#B7791F" stroke-width="1.45833" stroke-linecap="round" stroke-linejoin="round"/>
</g>
</svg>
